<?xml version="1.0" encoding="utf-8"?>
<!-- Generator: Adobe Illustrator 24.2.1, SVG Export Plug-In . SVG Version: 6.00 Build 0)  -->
<svg version="1.1" id="Capa_1" xmlns="http://www.w3.org/2000/svg" xmlns:xlink="http://www.w3.org/1999/xlink" x="0px" y="0px"
	 viewBox="0 0 250 250" style="enable-background:new 0 0 250 250;" xml:space="preserve">
<style type="text/css">
	.st0{fill:none;stroke:#000000;stroke-width:7;stroke-linecap:round;stroke-linejoin:round;stroke-miterlimit:10;}
	.st1{fill:none;stroke:#000000;stroke-width:5;stroke-linecap:round;stroke-linejoin:round;stroke-miterlimit:10;}
	.st2{stroke:#000000;stroke-width:5;stroke-linecap:round;stroke-linejoin:bevel;stroke-miterlimit:10;}
	.st3{fill:none;stroke:#000000;stroke-width:5;stroke-linecap:round;stroke-linejoin:bevel;stroke-miterlimit:10;}
</style>
<g>
	<polygon class="st0" points="6.2,83.26 124.11,5.99 244.39,81.74 244.39,110.8 124.33,34.64 6.62,108.39 	"/>
	<polyline class="st0" points="19.28,101.87 19.28,240.64 230.19,240.64 230.19,101.8 	"/>
	<g>
		<path d="M124.83,188.3c-4.55,0-9.1,0-13.66,0c-1.8,0-2.81-0.94-2.78-2.74c0.12-7.03-2.13-13.33-5.86-19.17
			c-2.87-4.49-5.9-8.87-8.68-13.41c-2.56-4.19-4.23-8.75-5.01-13.64c-0.47-2.99-0.69-5.99-0.54-8.99c0.25-4.97,1.36-9.75,3.41-14.32
			c1.8-4,4.22-7.57,7.25-10.68c2.99-3.07,6.45-5.54,10.43-7.26c2.68-1.16,5.44-2.05,8.31-2.54c1.46-0.25,2.94-0.43,4.41-0.51
			c1.77-0.09,3.54-0.07,5.31-0.01c4,0.14,7.85,1.04,11.57,2.51c5.03,1.99,9.33,5.04,12.9,9.08c3.8,4.3,6.49,9.22,8.02,14.77
			c0.79,2.87,1.2,5.79,1.39,8.76c0.55,8.33-1.38,16.04-5.67,23.13c-2.51,4.14-5.27,8.12-7.92,12.17c-2.76,4.23-4.95,8.72-5.85,13.72
			c-0.4,2.21-0.52,4.48-0.67,6.73c-0.1,1.53-0.86,2.38-2.43,2.38C134.13,188.3,129.48,188.3,124.83,188.3z M136.77,183.74
			c0.11-0.97,0.22-1.83,0.29-2.69c0.39-4.3,1.58-8.39,3.6-12.18c1.76-3.3,3.76-6.48,5.82-9.61c2.81-4.26,5.8-8.4,7.77-13.16
			c2.58-6.21,3.25-12.67,2.27-19.27c-0.62-4.17-1.93-8.14-4-11.85c-2.04-3.64-4.67-6.77-7.93-9.33c-5.12-4.01-11.07-5.89-17.49-6.31
			c-2.9-0.19-5.81,0.01-8.7,0.54c-7.56,1.37-13.79,4.96-18.53,11.03c-4.44,5.68-6.59,12.24-7.03,19.36
			c-0.15,2.47,0.1,4.98,0.36,7.45c0.53,5.04,2.39,9.64,5.05,13.9c3.04,4.87,6.33,9.59,9.33,14.49c2.19,3.57,3.77,7.44,4.52,11.59
			c0.36,1.99,0.63,3.99,0.94,6.04C120.93,183.74,128.82,183.74,136.77,183.74z"/>
		<path d="M124.95,190.42c4.61,0,9.23,0,13.84,0c0.95,0,1.74,0.34,2.19,1.18c0.41,0.76,0.32,1.58-0.17,2.31
			c-0.54,0.8-1.35,1.03-2.27,1.03c-5.91,0-11.82,0-17.74,0c-3.22,0-6.43,0.01-9.65-0.01c-1.09-0.01-2.06-0.32-2.52-1.45
			c-0.61-1.52,0.52-3.04,2.28-3.04c4.48-0.01,8.97,0,13.45-0.01C124.56,190.42,124.76,190.42,124.95,190.42z"/>
		<path d="M124.78,201.37c-4.65,0-9.3,0-13.94,0c-1.77,0-2.73-1.28-2.23-2.96c0.26-0.87,1.04-1.35,2.23-1.35c5.46,0,10.92,0,16.38,0
			c3.87,0,7.74,0,11.6,0c1.52,0,2.37,0.81,2.36,2.2c-0.01,1.32-0.89,2.1-2.36,2.1C134.14,201.37,129.46,201.37,124.78,201.37z"/>
		<path d="M124.78,208c-2.57,0-5.14,0-7.7,0c-1.42,0-2.52-0.91-2.58-2.1c-0.07-1.32,0.99-2.38,2.51-2.39
			c5.23-0.03,10.47-0.02,15.7,0c1.47,0.01,2.46,1,2.43,2.32c-0.04,1.34-0.97,2.17-2.45,2.18C130.05,208.01,127.42,208,124.78,208z"
			/>
	</g>
	<rect x="69.19" y="132.61" width="6.85" height="6.85"/>
	<rect x="55.13" y="133.12" width="6.85" height="6.85"/>
	<rect x="65.58" y="156.66" width="6.85" height="6.85"/>
	<rect x="54.01" y="163.51" width="6.85" height="6.85"/>
	<rect x="53.62" y="104.1" width="6.85" height="6.85"/>
	<rect x="65.77" y="108.93" width="6.85" height="6.85"/>
	<rect x="170.1" y="131.72" transform="matrix(-1 -1.224647e-16 1.224647e-16 -1 346.9104 270.3009)" width="6.72" height="6.85"/>
	<rect x="183.88" y="132.23" transform="matrix(-1 -1.224647e-16 1.224647e-16 -1 374.487 271.3149)" width="6.72" height="6.85"/>
	<rect x="167.38" y="155.88" transform="matrix(-1 -1.224647e-16 1.224647e-16 -1 341.487 318.6116)" width="6.72" height="6.85"/>
	<rect x="178.72" y="162.73" transform="matrix(-1 -1.224647e-16 1.224647e-16 -1 364.1676 332.3144)" width="6.72" height="6.85"/>
	<rect x="182.9" y="103.22" transform="matrix(-1 -1.224647e-16 1.224647e-16 -1 372.5197 213.2863)" width="6.72" height="6.85"/>
	<rect x="170.99" y="108.05" transform="matrix(-1 -1.224647e-16 1.224647e-16 -1 348.689 222.9466)" width="6.72" height="6.85"/>
</g>
</svg>
